<?xml version="1.0" standalone="no"?>
<!DOCTYPE svg PUBLIC "-//W3C//DTD SVG 20010904//EN"
 "http://www.w3.org/TR/2001/REC-SVG-20010904/DTD/svg10.dtd">
<svg version="1.0" xmlns="http://www.w3.org/2000/svg"
 width="700.000000pt" height="700.000000pt" viewBox="0 0 700.000000 700.000000"
 preserveAspectRatio="xMidYMid meet">
<metadata>
Created by potrace 1.14, written by Peter Selinger 2001-2017
</metadata>
<g transform="translate(0.000000,700.000000) scale(0.100000,-0.100000)"
fill="#000000" stroke="none">
<path d="M1190 6984 c-230 -62 -404 -246 -456 -484 -9 -44 -12 -5371 -2 -5500
37 -491 405 -897 893 -984 67 -12 405 -14 2142 -15 1490 -1 2077 2 2115 10
111 24 220 96 303 199 33 43 74 154 82 226 5 38 7 1411 7 3050 l-2 2981 -22
79 c-30 110 -81 197 -164 279 -80 79 -187 138 -290 160 -50 11 -480 13 -2306
14 -1946 0 -2252 -2 -2300 -15z"/>
</g>
</svg>
