<?xml version="1.0" encoding="iso-8859-1"?>
<!-- Generator: Adobe Illustrator 19.0.0, SVG Export Plug-In . SVG Version: 6.00 Build 0)  -->
<svg version="1.1" id="Layer_1" xmlns="http://www.w3.org/2000/svg" xmlns:xlink="http://www.w3.org/1999/xlink" x="0px" y="0px"
	 viewBox="0 0 512.001 512.001" style="enable-background:new 0 0 512.001 512.001;" xml:space="preserve">
<path style="fill:#FF8095;" d="M414.285,0H97.718C73.132,0,53.202,19.931,53.202,44.516v388.329H458.8V44.516
	C458.8,19.931,438.87,0,414.285,0z"/>
<path style="fill:#FFBFCA;" d="M132.357,0H97.718C73.132,0,53.202,19.931,53.202,44.516v388.329h79.156V0H132.357z"/>
<path style="fill:#D9576D;" d="M132.357,353.69c-43.716,0-79.156,35.439-79.156,79.156l0,0c0,43.716,35.439,79.156,79.156,79.156
	h290.407c19.903,0,36.036-16.134,36.036-36.036V353.69H132.357z"/>
<path style="fill:#FFF9F2;" d="M132.357,465.829c-18.187,0-32.984-14.796-32.984-32.984c0-18.187,14.797-32.984,32.984-32.984H458.8
	v65.967H132.357V465.829z"/>
<path style="opacity:0.15;fill:#333333;enable-background:new    ;" d="M458.8,399.861H132.357
	c-18.187,0-32.984,14.796-32.984,32.983H458.8V399.861z"/>
<g>
</g>
<g>
</g>
<g>
</g>
<g>
</g>
<g>
</g>
<g>
</g>
<g>
</g>
<g>
</g>
<g>
</g>
<g>
</g>
<g>
</g>
<g>
</g>
<g>
</g>
<g>
</g>
<g>
</g>
</svg>
